<svg width="16" height="16" viewBox="0 0 16 16" fill="none" xmlns="http://www.w3.org/2000/svg">
<rect width="16" height="16" rx="8" fill="white" fill-opacity="0.1"/>
<path d="M10.8754 8.87629C10.8356 8.91549 10.7882 8.9466 10.7359 8.96784C10.6837 8.98907 10.6277 9 10.5711 9C10.5146 9 10.4586 8.98907 10.4063 8.96784C10.3541 8.9466 10.3067 8.91549 10.2669 8.87629L8.30425 6.96082C8.26441 6.92162 8.21702 6.8905 8.1648 6.86927C8.11258 6.84804 8.05657 6.83711 8 6.83711C7.94343 6.83711 7.88742 6.84804 7.8352 6.86927C7.78298 6.8905 7.73559 6.92162 7.69575 6.96082L5.73311 8.87629C5.69328 8.91549 5.64588 8.9466 5.59366 8.96784C5.54144 8.98907 5.48543 9 5.42886 9C5.37229 9 5.31628 8.98907 5.26406 8.96784C5.21184 8.9466 5.16445 8.91549 5.12461 8.87629C5.0448 8.79793 5 8.69193 5 8.58144C5 8.47095 5.0448 8.36495 5.12461 8.28659L7.09153 6.36693C7.33258 6.13197 7.65932 6 8 6C8.34068 6 8.66742 6.13197 8.90847 6.36693L10.8754 8.28659C10.9552 8.36495 11 8.47095 11 8.58144C11 8.69193 10.9552 8.79793 10.8754 8.87629Z" fill="white"/>
</svg>
