<svg width="57" height="12" viewBox="0 0 57 12" fill="none" xmlns="http://www.w3.org/2000/svg">
    <path d="M6.5773 0C2.44637 0 0 2.36523 0 6C0 9.63477 2.44637 12 6.5773 12C10.8134 12 13.2252 9.63477 13.2252 6C13.2252 2.36523 10.8141 0 6.5773 0ZM6.5773 8.86945C4.16624 8.86945 3.54564 8.31536 3.54564 6C3.54564 3.68464 4.16624 3.13056 6.5773 3.13056C8.98837 3.13056 9.67957 3.68464 9.67957 6C9.67957 8.31536 8.98837 8.86945 6.5773 8.86945ZM24.6797 8.90408C24.237 8.01755 23.8466 7.44338 22.6238 7.13032V6.95787C24.8929 6.68083 25.8326 5.58375 25.8326 3.74074C25.8326 1.46208 24.1834 0.175229 21.0458 0.175229H14.1141V11.8262H17.4472V7.85825H18.812C20.1061 7.85825 20.4605 8.10135 20.8863 8.97126L22.3047 11.8234H26.1518L24.6797 8.90408ZM21.0084 5.42584H17.4472V3.11324H21.0105C21.9855 3.11324 22.34 3.33903 22.34 4.26088C22.34 5.25199 21.9855 5.42584 21.0105 5.42584H21.0084ZM26.6806 0.173843V11.8262H30.0137V0.173843H26.6806ZM37.4785 0C33.3475 0 30.9012 2.36523 30.9012 6C30.9012 9.63477 33.3475 12 37.4785 12C41.7146 12 44.1264 9.63477 44.1264 6C44.1264 2.36523 41.7174 0 37.4806 0H37.4785ZM37.4785 8.86945C35.0674 8.86945 34.4468 8.31536 34.4468 6C34.4468 3.68464 35.0674 3.13056 37.4785 3.13056C39.8895 3.13056 40.5807 3.68464 40.5807 6C40.5807 8.31536 39.8917 8.86945 37.4806 8.86945H37.4785ZM53.6662 0.173843V4.67575L53.8257 7.21482H53.5956L51.858 4.53653L48.5609 0.17315H45.0153V11.8262H48.3477V7.26954L48.2065 5.04352H48.4374L49.944 7.3388L53.4544 11.8262H57V0.173843H53.6662Z" fill="white"/>
</svg>
