<svg width="16" height="16" viewBox="0 0 16 16" fill="none" xmlns="http://www.w3.org/2000/svg">
<g clip-path="url(#clip0_249_1254)">
<rect width="16" height="16" fill="#24507C"/>
<path d="M6.58516 11.0813C6.77089 11.2672 6.99143 11.4146 7.23416 11.5152C7.4769 11.6158 7.73707 11.6676 7.99983 11.6676C8.26258 11.6676 8.52275 11.6158 8.76549 11.5152C9.00822 11.4146 9.22876 11.2672 9.41449 11.0813L11.5552 8.94067C11.6699 8.81373 11.7315 8.64751 11.7271 8.47644C11.7227 8.30536 11.6527 8.14253 11.5316 8.02165C11.4104 7.90077 11.2474 7.8311 11.0764 7.82707C10.9053 7.82304 10.7392 7.88496 10.6125 8L8.66183 9.95133L8.66649 3.66667C8.66649 3.48986 8.59625 3.32029 8.47123 3.19526C8.34621 3.07024 8.17664 3 7.99983 3C7.82301 3 7.65345 3.07024 7.52842 3.19526C7.4034 3.32029 7.33316 3.48986 7.33316 3.66667L7.32716 9.93867L5.38716 8C5.26207 7.87499 5.09244 7.8048 4.91559 7.80486C4.73874 7.80493 4.56916 7.87524 4.44416 8.00033C4.31915 8.12543 4.24896 8.29506 4.24902 8.4719C4.24909 8.64875 4.3194 8.81833 4.44449 8.94333L6.58516 11.0813Z" fill="#99A2AB"/>
<path d="M15.3333 10.6666C15.1565 10.6666 14.987 10.7369 14.8619 10.8619C14.7369 10.9869 14.6667 11.1565 14.6667 11.3333V14C14.6667 14.1768 14.5964 14.3463 14.4714 14.4714C14.3464 14.5964 14.1768 14.6666 14 14.6666H2C1.82319 14.6666 1.65362 14.5964 1.5286 14.4714C1.40357 14.3463 1.33333 14.1768 1.33333 14V11.3333C1.33333 11.1565 1.2631 10.9869 1.13807 10.8619C1.01305 10.7369 0.843478 10.6666 0.666667 10.6666C0.489856 10.6666 0.320286 10.7369 0.195262 10.8619C0.0702379 10.9869 0 11.1565 0 11.3333L0 14C0 14.5304 0.210714 15.0391 0.585786 15.4142C0.960859 15.7892 1.46957 16 2 16H14C14.5304 16 15.0391 15.7892 15.4142 15.4142C15.7893 15.0391 16 14.5304 16 14V11.3333C16 11.1565 15.9298 10.9869 15.8047 10.8619C15.6797 10.7369 15.5101 10.6666 15.3333 10.6666Z" fill="#99A2AB"/>
</g>
<defs>
<clipPath id="clip0_249_1254">
<rect width="16" height="16" fill="white"/>
</clipPath>
</defs>
</svg>
