<svg width="115" height="42" viewBox="0 0 115 42" fill="none" xmlns="http://www.w3.org/2000/svg">
                <g clip-path="url(#clip0_127_121)">
                    <path d="M54.0126 13.5967C49.0311 13.5967 46.0811 16.5042 46.0811 20.9722C46.0811 25.4403 49.0311 28.3478 54.0126 28.3478C59.1209 28.3478 62.0292 25.4403 62.0292 20.9722C62.0292 16.5042 59.1217 13.5967 54.0126 13.5967ZM54.0126 24.4995C51.1051 24.4995 50.3567 23.8184 50.3567 20.9722C50.3567 18.1261 51.1051 17.4449 54.0126 17.4449C56.9201 17.4449 57.7536 18.1261 57.7536 20.9722C57.7536 23.8184 56.9201 24.4995 54.0126 24.4995ZM75.8421 24.5421C75.3083 23.4523 74.8375 22.7465 73.3629 22.3617V22.1497C76.0992 21.8092 77.2324 20.4606 77.2324 18.195C77.2324 15.394 75.2436 13.8121 71.46 13.8121H63.1011V28.1341H67.1205V23.2565H68.7662C70.3268 23.2565 70.7542 23.5553 71.2676 24.6247L72.978 28.1307H77.6173L75.8421 24.5421ZM71.4149 20.2664H67.1205V17.4237H71.4175C72.5932 17.4237 73.0206 17.7012 73.0206 18.8344C73.0206 20.0527 72.5932 20.2664 71.4175 20.2664H71.4149ZM78.2549 13.8104V28.1341H82.2743V13.8104H78.2549ZM91.276 13.5967C86.2946 13.5967 83.3445 16.5042 83.3445 20.9722C83.3445 25.4403 86.2946 28.3478 91.276 28.3478C96.3844 28.3478 99.2927 25.4403 99.2927 20.9722C99.2927 16.5042 96.3878 13.5967 91.2786 13.5967H91.276ZM91.276 24.4995C88.3686 24.4995 87.6202 23.8184 87.6202 20.9722C87.6202 18.1261 88.3686 17.4449 91.276 17.4449C94.1835 17.4449 95.017 18.1261 95.017 20.9722C95.017 23.8184 94.1861 24.4995 91.2786 24.4995H91.276ZM110.797 13.8104V19.3444L110.989 22.4656H110.711L108.616 19.1733L104.64 13.8095H100.365V28.1341H104.383V22.5328L104.213 19.7965H104.491L106.308 22.618L110.541 28.1341H114.817V13.8104H110.797Z"
                          fill="white"/>
                    <path fill-rule="evenodd" clip-rule="evenodd"
                          d="M40.8952 27.5235C40.8915 27.5202 40.8882 27.5165 40.8854 27.5125C40.8093 27.4233 40.7394 27.3427 40.6543 27.2578C39.8735 26.4479 39.0496 25.1704 38.6985 24.2213C38.3878 23.3834 38.0457 21.5897 38.0475 20.8062C38.0475 20.0074 38.4738 18.1525 38.8588 17.2595C39.2529 16.3444 40.2137 14.9428 40.8415 14.3673C40.8943 14.3181 40.9463 14.2671 40.9928 14.2145C40.7654 13.592 40.5069 12.9819 40.2173 12.3843C40.0723 12.5159 39.8932 12.6916 39.7015 12.8877L39.6899 12.9004C39.2368 13.3632 38.8091 13.8477 38.4084 14.352C38.4019 14.3582 38.3962 14.365 38.3914 14.3724C38.3502 14.4259 38.3126 14.476 38.2794 14.5218C37.5268 15.6059 36.9581 16.7953 36.5941 18.0464C36.0747 19.9233 36.166 22.6542 36.8099 24.5209C37.4081 26.2518 39.0666 28.6194 40.2496 29.4369C40.529 28.8563 40.7791 28.262 41 27.6542C40.9669 27.6092 40.9319 27.5668 40.8952 27.5235ZM38.1648 32.2943C37.5918 31.8452 37.0603 31.3505 36.5762 30.8155C35.6072 29.7663 34.6956 28.5108 34.1341 27.4089C33.9801 27.1044 33.8374 26.7968 33.7061 26.4861C33.3451 25.6349 33.0675 24.754 32.8768 23.8546C32.8607 23.7697 32.8437 23.6916 32.8285 23.6109C32.8133 23.5303 32.7944 23.4276 32.7792 23.3359C32.764 23.2442 32.7533 23.1737 32.7398 23.0923C32.7246 22.9963 32.7103 22.9004 32.6986 22.8036C32.687 22.7069 32.6744 22.6109 32.6637 22.5142C32.6565 22.4471 32.6494 22.3792 32.6431 22.3113C32.264 18.5984 33.3766 14.8866 35.7586 11.9174L35.8266 11.8325C35.9484 11.6839 36.072 11.5362 36.201 11.3911C36.7553 10.7654 37.9275 9.6712 38.3932 9.33419C38.035 8.8424 37.658 8.36701 37.2621 7.90804C36.9577 8.14743 36.4893 8.55321 35.9932 9.01161C35.9395 9.06085 35.8866 9.11093 35.8338 9.16186C35.7989 9.19412 35.764 9.22808 35.7281 9.26203C35.0462 9.9142 34.42 10.6168 33.8556 11.3631C33.8162 11.4157 33.7759 11.4683 33.7374 11.5218C33.724 11.5405 33.7114 11.5566 33.6989 11.5753C33.6568 11.633 33.6147 11.6916 33.5735 11.7518C33.5323 11.8121 33.4921 11.869 33.45 11.9293C33.4079 11.9895 33.3703 12.0456 33.3326 12.1041C33.295 12.1627 33.2521 12.2247 33.2127 12.2858L33.0738 12.504C33.0049 12.616 32.9359 12.7289 32.8697 12.8435L32.7461 13.0566C32.6565 13.217 32.567 13.3783 32.4774 13.5405C32.4362 13.6254 32.3951 13.7026 32.3548 13.7833C31.7355 15.0365 31.2807 16.3571 31.0007 17.7153C30.633 19.4536 30.568 21.2373 30.8082 22.9955C31.0308 24.6266 31.5045 26.2179 32.2142 27.7187C32.6397 28.6215 33.1435 29.4892 33.7204 30.313C33.81 30.4445 33.9335 30.5999 34.0786 30.7722C34.8868 31.7168 35.754 32.6146 36.6756 33.4607C36.9057 33.6695 37.1108 33.8444 37.2702 33.9658C37.6768 33.4966 38.0591 33.0116 38.4174 32.5108C38.3439 32.4428 38.2571 32.3647 38.1648 32.2943ZM21.726 0.439453C21.5352 0.658468 21.2585 1.00736 21.0597 1.28071C20.9211 1.48333 20.7559 1.66845 20.5681 1.83164C20.5494 1.84806 20.526 1.85897 20.5009 1.86305C20.4284 1.86305 20.0254 1.41908 19.6054 0.884275C19.4666 0.707704 19.3555 0.561694 19.2624 0.442C18.5287 0.482747 17.8057 0.556884 17.0935 0.664411C17.5887 1.31382 18.5926 2.57443 19.394 3.5583C20.0155 4.32231 20.5134 4.91653 20.5582 4.93266C20.603 4.94879 20.7212 4.83079 20.8636 4.65338C20.9155 4.58886 20.9692 4.51755 21.0221 4.43945C21.1663 4.23062 21.3454 3.9819 21.5433 3.7128C22.2597 2.751 23.2223 1.53793 23.7364 0.968316C23.8304 0.86475 23.9155 0.76458 23.9952 0.672051C23.2437 0.556351 22.4862 0.478708 21.726 0.439453ZM22.7612 39.7501L22.6958 39.6653L22.2427 39.1016C22.0546 38.8656 21.8943 38.6661 21.7555 38.4963C21.7457 38.4827 21.734 38.47 21.7251 38.4573C21.3892 38.0413 21.1878 37.7951 21.0086 37.5863C20.8788 37.4335 20.7642 37.3002 20.6218 37.1355L20.5206 37.0269L20.3496 36.8308L19.9985 37.3121L19.814 37.5668C19.6421 37.8011 19.4845 38.0167 19.3367 38.2162L19.1021 38.5345C19.0233 38.6398 18.9463 38.7383 18.8773 38.8342C18.8747 38.836 18.8726 38.8383 18.8711 38.841C18.5576 39.2578 18.3024 39.5897 18.0794 39.8673L17.972 39.998L17.9675 40.004C17.7382 40.285 17.5394 40.5133 17.3406 40.7196C17.1615 40.9106 17.0192 41.0659 16.9144 41.1916C17.6649 41.3106 18.4214 41.3925 19.1809 41.4369C19.3439 41.2671 19.5329 41.0328 19.7827 40.7128C19.8508 40.6279 19.917 40.543 19.9797 40.4666C20.2206 40.1737 20.4149 39.9615 20.449 39.9573C20.483 39.953 20.6549 40.1389 20.8869 40.4097C20.9361 40.4658 20.9881 40.5286 21.0445 40.5923C21.0473 40.5949 21.0494 40.5981 21.0507 40.6016C21.1215 40.6865 21.1967 40.7782 21.2728 40.8732C21.4421 41.0821 21.6086 41.2782 21.7528 41.4395C22.4753 41.4016 23.1953 41.3291 23.9101 41.2221C23.6513 40.8741 23.2349 40.3376 22.7612 39.7501ZM28.0348 1.6763L27.6766 2.02689C26.1381 3.54472 24.6605 5.42927 23.4543 7.37494C23.1041 7.93945 22.7764 8.51076 22.4773 9.07867C22.463 9.10499 22.4495 9.13215 22.437 9.15762C22.3716 9.28156 22.3089 9.4021 22.2462 9.52519C22.0456 9.92672 21.8576 10.3282 21.6866 10.723C21.5361 11.0702 21.3552 11.3707 21.2836 11.3885C21.2549 11.397 21.2021 11.3656 21.0901 11.2535L21.0812 11.2442C20.8125 10.9785 20.2385 10.2816 18.9239 8.64658L18.7287 8.40465L18.7009 8.36984L17.5717 6.95558C17.278 6.58943 16.9606 6.19186 16.6198 5.76288C14.6613 3.30703 13.7479 2.12536 13.1998 1.61178C12.6118 1.81212 12.0356 2.03566 11.4715 2.28241C12.0446 3.03538 13.4729 4.82231 15.9965 7.94794L16.0654 8.03283C16.3081 8.33249 16.5454 8.62706 16.7684 8.90465C17.475 9.78495 18.0427 10.4997 18.1529 10.6466C18.1645 10.6636 18.1788 10.6814 18.1923 10.7009C18.4779 11.0795 19.2257 12.004 19.9833 12.9293C20.1937 13.1839 20.4078 13.4479 20.6101 13.6933C21.3364 14.5753 21.9445 15.2985 21.9803 15.3121C21.9856 15.3121 21.9973 15.3011 22.0116 15.2731C22.12 15.0906 22.4307 14.2714 22.7674 13.285C22.7678 13.2827 22.7678 13.2804 22.7674 13.2782C22.8785 12.9528 22.9958 12.6305 23.1194 12.3113C23.2089 12.0685 23.3092 11.8265 23.4104 11.588C23.4292 11.5447 23.4462 11.5031 23.4659 11.4556C23.731 10.8331 24.0194 10.225 24.331 9.6313C25.606 7.16641 27.3061 4.92051 29.3611 2.98614L29.4103 2.93945C29.602 2.75779 29.7775 2.58292 29.9154 2.43606C29.3041 2.15422 28.6772 1.90097 28.0348 1.6763ZM28.7817 38.6398L28.7727 38.6271C28.2873 38.0082 27.5638 37.1067 26.5062 35.7917L26.3522 35.6016L24.7904 33.6593L23.757 32.3741L23.6414 32.2272C22.6662 31.0116 21.8594 30.004 21.2092 29.1899L20.7292 28.5855C20.5591 28.3727 20.4033 28.176 20.2618 27.9955C20.2484 27.9777 20.2322 27.9607 20.2188 27.942C20.1919 27.9072 20.1651 27.8732 20.1373 27.8393C19.8149 27.4352 19.5194 27.0753 19.3081 26.8274C19.1227 26.6126 19.0018 26.4819 18.9803 26.481C18.9588 26.4802 18.9302 26.5515 18.8773 26.6771C18.7403 26.9938 18.495 27.6602 18.2353 28.4284C18.2075 28.5091 18.1806 28.5906 18.152 28.6695C17.8316 29.5936 17.4583 30.5005 17.0335 31.386C16.9735 31.515 16.9108 31.6406 16.8472 31.7688C16.6681 32.1322 16.4783 32.4895 16.2777 32.841C15.9159 33.4884 15.5278 34.1174 15.1135 34.7281C14.3472 35.8515 13.4891 36.9162 12.547 37.9123C12.5439 37.9167 12.5403 37.9206 12.5362 37.9242C12.3404 38.1313 12.1404 38.3359 11.9362 38.5379C11.5942 38.8775 11.2852 39.1933 11.0739 39.4174C11.6607 39.689 12.2613 39.9346 12.8756 40.1542L13.3771 39.6661C14.0547 39.0128 14.6916 38.3226 15.2846 37.599C15.2927 37.5907 15.2999 37.5816 15.306 37.5719C15.7628 37.0116 16.215 36.4038 16.7004 35.7043C16.969 35.3198 17.2439 34.9046 17.5386 34.4539C17.5797 34.3911 17.6281 34.3172 17.6756 34.2349C17.7105 34.1737 17.749 34.1092 17.7884 34.0396C17.795 34.0293 17.8006 34.0185 17.8054 34.0074C18.2997 33.1372 19.0305 31.661 19.3332 30.8945C19.3944 30.7233 19.4758 30.5593 19.5758 30.4055C19.6117 30.3563 19.6421 30.3299 19.6654 30.3367C19.7564 30.4086 19.8379 30.4907 19.9081 30.5812C19.9278 30.6058 19.9511 30.6322 19.9752 30.6593C20.1463 30.8571 20.3899 31.1466 20.7122 31.5396C20.8018 31.6466 20.8913 31.7603 20.9952 31.8843C21.4842 32.4827 22.1173 33.268 22.9152 34.2612C22.977 34.3367 23.0388 34.414 23.1024 34.4929C23.1507 34.5541 23.2009 34.6169 23.2528 34.6805C23.6355 35.1576 24.0534 35.6788 24.5065 36.2442C24.5593 36.3113 24.614 36.3775 24.665 36.4437C26.5617 38.8206 27.3838 39.8461 27.7599 40.2977C28.3635 40.0951 28.9539 39.8687 29.5312 39.6186C29.3888 39.4242 29.1569 39.1169 28.7817 38.6398ZM10.0906 18.8495C10.0557 18.498 10.01 18.1805 9.95448 17.9114C9.85866 17.4488 9.74046 16.9861 9.59628 16.5269C9.39833 15.8817 9.16274 15.2475 8.89062 14.6271C7.76048 12.0456 5.99991 9.7077 3.95099 8.15507C3.86144 8.08971 3.788 8.03283 3.71905 7.98529C3.32622 8.44426 2.95399 8.91766 2.60235 9.4055L2.63548 9.43521C2.63548 9.43521 2.64175 9.4403 2.64444 9.44455L2.90682 9.67969C3.41279 10.1339 3.83726 10.5286 4.20621 10.9013C4.20858 10.9033 4.21068 10.9055 4.21248 10.908C5.10812 11.7824 5.86144 12.7783 6.44767 13.8631C6.71632 14.3435 6.95632 14.813 7.16407 15.279C7.32467 15.6361 7.46586 15.9924 7.58765 16.3478C8.08555 17.779 8.30406 19.2289 8.30406 20.9097C8.30406 21.7586 8.21451 22.9471 8.10436 23.5413C7.77571 25.324 6.92856 27.3452 5.8423 28.9692C5.73663 29.1279 5.62738 29.2841 5.51544 29.4352C5.4035 29.5863 5.24679 29.7748 5.06769 29.9853C5.06495 29.9894 5.06163 29.9931 5.05784 29.9963C4.38173 30.7756 3.33667 31.8198 2.72951 32.3011C2.67578 32.3435 2.62205 32.386 2.57101 32.4318C2.91936 32.9199 3.28741 33.3936 3.68144 33.8503C4.26741 33.4298 4.81528 32.9635 5.31933 32.4564C6.30523 31.4789 7.16169 30.3911 7.86974 29.217C7.93959 29.1041 8.00585 28.9895 8.07033 28.8775C8.15988 28.7221 8.24406 28.5668 8.32734 28.4089C8.356 28.3571 8.38376 28.3036 8.40973 28.251C8.45361 28.1661 8.49928 28.0855 8.53689 28.0031C9.18455 26.7056 9.65982 25.3369 9.9518 23.9284C10.2088 22.7026 10.2527 20.4445 10.0906 18.8495ZM3.73875 16.4929C3.36307 15.6205 2.86777 14.7988 2.26564 14.049C1.81023 13.4987 1.31053 12.9827 0.771034 12.5057C0.486262 13.1027 0.231638 13.7151 0.00716407 14.3427L0.32507 14.6661C0.812227 15.1602 1.35132 15.9547 1.78296 16.768C2.07826 17.3115 2.31469 17.8821 2.48862 18.4709C3.10563 20.7527 2.76533 23.2892 1.64595 25.3469L1.62624 25.3817C1.27424 26.0262 0.83666 26.6253 0.324174 27.1644C0.208654 27.2909 0.098506 27.4097 0 27.5192C0.221489 28.1418 0.473127 28.7493 0.754914 29.3418L0.793421 29.3087C1.39862 28.7597 1.954 28.1634 2.4537 27.526C4.86709 24.352 5.2835 20.0608 3.73875 16.4929Z"
                          fill="white"/>
                    <path fill-rule="evenodd" clip-rule="evenodd"
                          d="M34.9096 36.2908C34.4341 36.6915 33.9398 37.0735 33.4276 37.4326C32.6315 36.7603 30.6604 34.8265 30.1706 34.2017C27.2109 30.4352 27.0444 30.2212 19.5221 20.8452C17.5323 18.3647 15.821 16.2246 15.7171 16.0913C15.4216 15.7026 15.3893 15.9003 15.5953 16.8333C15.7045 17.3307 15.8165 18.7526 15.8568 20.1728C15.9204 22.3435 15.8944 22.8341 15.6472 24.1915C14.9308 28.1397 13.2625 31.6924 10.8348 34.4547C9.84163 35.5837 8.12494 37.2017 7.66376 37.464C7.18615 37.129 6.72287 36.7758 6.27393 36.4046C6.5184 36.1499 7.01989 35.6686 7.59659 35.1312C12.452 30.5812 14.7419 24.4352 13.8849 18.256C13.232 13.5481 11.1661 9.65247 7.50794 6.23396L6.50228 5.29084C6.97989 4.90714 7.47242 4.54324 7.97987 4.19916C8.91478 4.93176 10.8079 6.95637 12.3992 8.9776C13.4434 10.3036 15.1045 12.3902 16.0905 13.6143C17.0765 14.8384 18.7269 16.8978 19.7621 18.1907C20.7973 19.4835 22.4665 21.5693 23.4776 22.8273C24.4886 24.0854 25.3975 25.2229 25.4969 25.3554C25.8113 25.773 25.8417 25.4759 25.5963 24.4139C25.402 23.5778 25.359 22.8723 25.3689 20.6635C25.3778 18.1168 25.4038 17.8341 25.7772 16.2119C26.2065 14.2541 26.9268 12.364 27.9166 10.5981C29.1811 8.29848 31.0142 6.04805 32.9028 4.4759L33.158 4.25943C33.6738 4.61087 34.1726 4.98325 34.6544 5.37658L34.5353 5.47675C30.8055 8.59474 28.4772 12.4547 27.4921 17.1457C27.0677 19.1652 27.0677 22.2866 27.4921 24.3112C28.4476 28.8664 30.7921 32.8197 34.247 35.6992C34.5022 35.9148 34.7457 36.1321 34.9096 36.2908Z"
                          fill="white"/>
                </g>
                <defs>
                    <clipPath id="clip0_127_121">
                        <rect width="115" height="42" fill="white"/>
                    </clipPath>
                </defs>
            </svg>