<svg width="93" height="20" viewBox="0 0 93 20" fill="none" xmlns="http://www.w3.org/2000/svg">
<path d="M10.7314 0C3.99144 0 0 3.94205 0 10C0 16.0579 3.99144 20 10.7314 20C17.643 20 21.578 16.0579 21.578 10C21.578 3.94205 17.6441 0 10.7314 0ZM10.7314 14.7824C6.79755 14.7824 5.785 13.8589 5.785 10C5.785 6.14106 6.79755 5.21759 10.7314 5.21759C14.6652 5.21759 15.793 6.14106 15.793 10C15.793 13.8589 14.6652 14.7824 10.7314 14.7824ZM40.2669 14.8401C39.5446 13.3626 38.9076 12.4056 36.9125 11.8839V11.5964C40.6148 11.1347 42.148 9.30625 42.148 6.23456C42.148 2.4368 39.4571 0.292048 34.3379 0.292048H23.0283V19.7103H28.4665V13.0971H30.6932C32.8047 13.0971 33.383 13.5023 34.0776 14.9521L36.3918 19.7056H42.6687L40.2669 14.8401ZM34.2769 9.04306H28.4665V5.18874H34.2803C35.8711 5.18874 36.4494 5.56505 36.4494 7.10147C36.4494 8.75332 35.8711 9.04306 34.2803 9.04306H34.2769ZM43.5315 0.289739V19.7103H48.9697V0.289739H43.5315ZM61.1491 0C54.4092 0 50.4177 3.94205 50.4177 10C50.4177 16.0579 54.4092 20 61.1491 20C68.0607 20 71.9957 16.0579 71.9957 10C71.9957 3.94205 68.0653 0 61.1526 0H61.1491ZM61.1491 14.7824C57.2153 14.7824 56.2027 13.8589 56.2027 10C56.2027 6.14106 57.2153 5.21759 61.1491 5.21759C65.0829 5.21759 66.2107 6.14106 66.2107 10C66.2107 13.8589 65.0864 14.7824 61.1526 14.7824H61.1491ZM87.5606 0.289739V7.79291L87.8209 12.0247H87.4454L84.6105 7.56089L79.231 0.288584H73.446V19.7103H78.8831V12.1159L78.6527 8.40586H79.0294L81.4876 12.2313L87.215 19.7103H93V0.289739H87.5606Z" fill="white"/>
</svg>
