<svg width="16" height="16" viewBox="0 0 16 16" fill="none" xmlns="http://www.w3.org/2000/svg">
<path d="M1.5833 15C1.738 15 1.88637 14.9386 1.99576 14.8293C2.10515 14.7199 2.1666 14.5717 2.1666 14.4171C2.16753 13.4897 2.53655 12.6006 3.19269 11.9449C3.84883 11.2892 4.73848 10.9204 5.6664 10.9195H9.06704V11.844C9.06709 12.0746 9.13554 12.2999 9.26373 12.4916C9.39192 12.6833 9.5741 12.8327 9.78724 12.9209C10.0004 13.0091 10.2349 13.0322 10.4612 12.9872C10.6874 12.9423 10.8953 12.8313 11.0584 12.6683L14.4877 9.24121C14.8157 8.91326 15 8.46853 15 8.00481C15 7.54109 14.8157 7.09636 14.4877 6.76841L11.0584 3.34135C10.8953 3.17835 10.6874 3.06735 10.4612 3.02239C10.2349 2.97742 10.0004 3.00051 9.78724 3.08873C9.5741 3.17695 9.39192 3.32635 9.26373 3.51803C9.13554 3.70971 9.06709 3.93507 9.06704 4.16562V5.09015H6.2497C4.85787 5.09169 3.52348 5.64493 2.53931 6.62848C1.55513 7.61204 1.00154 8.94558 1 10.3365V14.4171C1 14.5717 1.06145 14.7199 1.17084 14.8293C1.28023 14.9386 1.4286 15 1.5833 15ZM10.2336 4.16562L13.6629 7.59268C13.7722 7.70199 13.8336 7.85024 13.8336 8.00481C13.8336 8.15938 13.7722 8.30763 13.6629 8.41694L10.2336 11.844V10.3365C10.2336 10.1819 10.1722 10.0337 10.0628 9.92435C9.95341 9.81502 9.80504 9.75361 9.65034 9.75361H5.6664C5.00401 9.75341 4.3492 9.89443 3.74568 10.1672C3.14216 10.4401 2.60382 10.8384 2.1666 11.3357V10.3365C2.16784 9.2547 2.59841 8.21751 3.36388 7.45253C4.12934 6.68755 5.16718 6.25725 6.2497 6.25601H9.65034C9.80504 6.25601 9.95341 6.1946 10.0628 6.08528C10.1722 5.97595 10.2336 5.82768 10.2336 5.67308V4.16562Z" fill="#99A2AB"/>
</svg>
