<svg width="32" height="32" viewBox="0 0 32 32" fill="none" xmlns="http://www.w3.org/2000/svg">
<g clip-path="url(#clip0_445_1116)">
<path d="M28 16H24C23.2928 16 22.6145 16.281 22.1144 16.781C21.6143 17.2811 21.3333 17.9594 21.3333 18.6667C21.3333 19.3739 21.0524 20.0522 20.5523 20.5523C20.0522 21.0524 19.3739 21.3333 18.6667 21.3333H13.3333C12.6261 21.3333 11.9478 21.0524 11.4477 20.5523C10.9476 20.0522 10.6667 19.3739 10.6667 18.6667C10.6667 17.9594 10.3857 17.2811 9.88562 16.781C9.38552 16.281 8.70724 16 8 16H4C2.93913 16 1.92172 16.4214 1.17157 17.1716C0.421427 17.9217 0 18.9391 0 20L0 25.3333C0.00211714 27.1008 0.705176 28.7953 1.95496 30.045C3.20474 31.2948 4.89921 31.9979 6.66667 32H25.3333C27.1008 31.9979 28.7953 31.2948 30.045 30.045C31.2948 28.7953 31.9979 27.1008 32 25.3333V20C32 18.9391 31.5786 17.9217 30.8284 17.1716C30.0783 16.4214 29.0609 16 28 16ZM29.3333 25.3333C29.3333 26.3942 28.9119 27.4116 28.1618 28.1618C27.4116 28.9119 26.3942 29.3333 25.3333 29.3333H6.66667C5.6058 29.3333 4.58839 28.9119 3.83824 28.1618C3.08809 27.4116 2.66667 26.3942 2.66667 25.3333V20C2.66667 19.6464 2.80714 19.3072 3.05719 19.0572C3.30724 18.8071 3.64638 18.6667 4 18.6667H8C8 20.0812 8.5619 21.4377 9.5621 22.4379C10.5623 23.4381 11.9188 24 13.3333 24H18.6667C20.0812 24 21.4377 23.4381 22.4379 22.4379C23.4381 21.4377 24 20.0812 24 18.6667H28C28.3536 18.6667 28.6928 18.8071 28.9428 19.0572C29.1929 19.3072 29.3333 19.6464 29.3333 20V25.3333Z" fill="white"/>
<path d="M3.99984 13.3334H27.9998C28.3535 13.3334 28.6926 13.1929 28.9426 12.9429C29.1927 12.6928 29.3332 12.3537 29.3332 12.0001C29.3332 11.6465 29.1927 11.3073 28.9426 11.0573C28.6926 10.8072 28.3535 10.6667 27.9998 10.6667H3.99984C3.64622 10.6667 3.30708 10.8072 3.05703 11.0573C2.80698 11.3073 2.6665 11.6465 2.6665 12.0001C2.6665 12.3537 2.80698 12.6928 3.05703 12.9429C3.30708 13.1929 3.64622 13.3334 3.99984 13.3334Z" fill="white"/>
<path d="M3.99984 7.99992H27.9998C28.3535 7.99992 28.6926 7.85944 28.9426 7.60939C29.1927 7.35935 29.3332 7.02021 29.3332 6.66659C29.3332 6.31296 29.1927 5.97383 28.9426 5.72378C28.6926 5.47373 28.3535 5.33325 27.9998 5.33325H3.99984C3.64622 5.33325 3.30708 5.47373 3.05703 5.72378C2.80698 5.97383 2.6665 6.31296 2.6665 6.66659C2.6665 7.02021 2.80698 7.35935 3.05703 7.60939C3.30708 7.85944 3.64622 7.99992 3.99984 7.99992Z" fill="white"/>
</g>
<defs>
<clipPath id="clip0_445_1116">
<rect width="32" height="32" fill="white"/>
</clipPath>
</defs>
</svg>
