<svg width="32" height="32" viewBox="0 0 32 32" fill="none" xmlns="http://www.w3.org/2000/svg">
<g clip-path="url(#clip0_445_1146)">
<path d="M21.3333 22.6667C21.687 22.6667 22.0261 22.8072 22.2761 23.0572C22.5262 23.3073 22.6667 23.6464 22.6667 24C22.6667 24.3536 22.5262 24.6928 22.2761 24.9428C22.0261 25.1929 21.687 25.3334 21.3333 25.3334H20C19.6464 25.3334 19.3072 25.1929 19.0572 24.9428C18.8071 24.6928 18.6667 24.3536 18.6667 24C18.6667 23.6464 18.8071 23.3073 19.0572 23.0572C19.3072 22.8072 19.6464 22.6667 20 22.6667H21.3333ZM18.6667 20C18.313 20 17.9739 19.8595 17.7239 19.6095C17.4738 19.3594 17.3333 19.0203 17.3333 18.6667V17.3334H14.6667V18.6667C14.6667 19.0203 14.5262 19.3594 14.2761 19.6095C14.0261 19.8595 13.687 20 13.3333 20C12.9797 20 12.6406 19.8595 12.3905 19.6095C12.1405 19.3594 12 19.0203 12 18.6667V13.3334C12 12.2725 12.4214 11.2551 13.1716 10.5049C13.9217 9.75478 14.9391 9.33335 16 9.33335C17.0609 9.33335 18.0783 9.75478 18.8284 10.5049C19.5786 11.2551 20 12.2725 20 13.3334V18.6667C20 19.0203 19.8595 19.3594 19.6095 19.6095C19.3594 19.8595 19.0203 20 18.6667 20ZM17.3333 14.6667V13.3334C17.3333 12.9797 17.1929 12.6406 16.9428 12.3905C16.6928 12.1405 16.3536 12 16 12C15.6464 12 15.3072 12.1405 15.0572 12.3905C14.8071 12.6406 14.6667 12.9797 14.6667 13.3334V14.6667H17.3333ZM15.052 21.7334L12.9027 23.9067C12.8425 23.9672 12.7613 24.0024 12.676 24.0048C12.5907 24.0073 12.5076 23.977 12.444 23.92L11.6227 23.0667C11.3751 22.8131 11.037 22.6683 10.6827 22.6641C10.3284 22.6598 9.98688 22.7965 9.73333 23.044C9.47979 23.2916 9.33496 23.6297 9.33071 23.984C9.32646 24.3383 9.46313 24.6798 9.71067 24.9334L10.5453 25.792C11.109 26.3546 11.8729 26.6706 12.6693 26.6706C13.4658 26.6706 14.2296 26.3546 14.7933 25.792L16.948 23.6C17.1686 23.3437 17.2836 23.0131 17.2696 22.6752C17.2556 22.3374 17.1138 22.0174 16.8728 21.7801C16.6318 21.5429 16.3097 21.4061 15.9716 21.3974C15.6336 21.3887 15.3049 21.5088 15.052 21.7334ZM28 8.87602V25.3334C27.9979 27.1008 27.2948 28.7953 26.045 30.0451C24.7953 31.2948 23.1008 31.9979 21.3333 32H10.6667C8.89921 31.9979 7.20474 31.2948 5.95496 30.0451C4.70518 28.7953 4.00212 27.1008 4 25.3334V6.66669C4.00212 4.89923 4.70518 3.20477 5.95496 1.95498C7.20474 0.705198 8.89921 0.00213907 10.6667 2.19242e-05H19.124C20 -0.0022315 20.8677 0.169246 21.677 0.504532C22.4862 0.839818 23.221 1.33226 23.8387 1.95336L26.0467 4.16136C26.6678 4.77906 27.1602 5.5138 27.4955 6.32307C27.8308 7.13233 28.0023 8.00005 28 8.87602ZM21.9533 3.83869C21.7638 3.65023 21.5561 3.48096 21.3333 3.33336V6.66669H24.6667C24.5186 6.44382 24.3489 6.23614 24.16 6.04669L21.9533 3.83869ZM25.3333 9.33335H21.3333C20.6261 9.33335 19.9478 9.0524 19.4477 8.55231C18.9476 8.05221 18.6667 7.37393 18.6667 6.66669V2.66669H10.6667C9.6058 2.66669 8.58839 3.08812 7.83824 3.83826C7.08809 4.58841 6.66667 5.60582 6.66667 6.66669V25.3334C6.66667 26.3942 7.08809 27.4116 7.83824 28.1618C8.58839 28.9119 9.6058 29.3334 10.6667 29.3334H21.3333C22.3942 29.3334 23.4116 28.9119 24.1618 28.1618C24.9119 27.4116 25.3333 26.3942 25.3333 25.3334V9.33335Z" fill="white"/>
</g>
<defs>
<clipPath id="clip0_445_1146">
<rect width="32" height="32" fill="white"/>
</clipPath>
</defs>
</svg>
