<svg width="32" height="32" viewBox="0 0 32 32" fill="none" xmlns="http://www.w3.org/2000/svg">
<g clip-path="url(#clip0_445_1204)">
<path d="M28.2066 26.3212C30.6553 23.4397 31.9998 19.7814 31.9998 15.9999C31.9998 12.2184 30.6553 8.56011 28.2066 5.67858L29.3532 4.53192C29.6033 4.28173 29.7436 3.94247 29.7435 3.58878C29.7434 3.23508 29.6028 2.89593 29.3526 2.64592C29.1024 2.39591 28.7631 2.25552 28.4094 2.25565C28.0558 2.25577 27.7166 2.39639 27.4666 2.64658L26.3199 3.79325C23.4384 1.34449 19.7801 0 15.9986 0C12.2171 0 8.55878 1.34449 5.67725 3.79325L4.53058 2.64658C4.27894 2.40388 3.94204 2.26972 3.59245 2.273C3.24285 2.27628 2.90853 2.41674 2.66149 2.66413C2.41445 2.91152 2.27446 3.24604 2.27167 3.59564C2.26889 3.94524 2.40352 4.28195 2.64658 4.53325L3.79325 5.67992C1.34449 8.56145 0 12.2198 0 16.0013C0 19.7827 1.34449 23.4411 3.79325 26.3226L2.64658 27.4692C2.51933 27.5923 2.41786 27.7395 2.34809 27.9023C2.27833 28.065 2.24168 28.24 2.24027 28.417C2.23885 28.594 2.27271 28.7696 2.33987 28.9334C2.40703 29.0972 2.50614 29.246 2.63141 29.3711C2.75669 29.4962 2.90563 29.5951 3.06954 29.662C3.23344 29.729 3.40904 29.7626 3.58608 29.7609C3.76311 29.7592 3.93804 29.7223 4.10067 29.6523C4.26329 29.5824 4.41034 29.4807 4.53325 29.3532L5.67992 28.2066C8.56145 30.6553 12.2198 31.9998 16.0013 31.9998C19.7827 31.9998 23.4411 30.6553 26.3226 28.2066L27.4692 29.3532C27.7209 29.596 28.0578 29.7301 28.4074 29.7268C28.757 29.7236 29.0913 29.5831 29.3383 29.3357C29.5854 29.0883 29.7254 28.7538 29.7282 28.4042C29.7309 28.0546 29.5963 27.7179 29.3532 27.4666L28.2066 26.3212ZM29.3333 15.9999C29.3357 19.0752 28.2696 22.0558 26.3173 24.4319L21.5559 19.6706C22.2801 18.5834 22.6665 17.3062 22.6665 15.9999C22.6665 14.6936 22.2801 13.4165 21.5559 12.3292L26.3173 7.56792C28.2696 9.94401 29.3357 12.9246 29.3333 15.9999ZM11.9999 15.9999C11.9999 15.2088 12.2345 14.4354 12.674 13.7776C13.1136 13.1198 13.7383 12.6071 14.4692 12.3044C15.2001 12.0016 16.0044 11.9224 16.7803 12.0768C17.5562 12.2311 18.2689 12.6121 18.8283 13.1715C19.3878 13.7309 19.7687 14.4436 19.9231 15.2196C20.0774 15.9955 19.9982 16.7997 19.6954 17.5307C19.3927 18.2616 18.88 18.8863 18.2222 19.3258C17.5644 19.7653 16.791 19.9999 15.9999 19.9999C14.9391 19.9999 13.9216 19.5785 13.1715 18.8283C12.4213 18.0782 11.9999 17.0608 11.9999 15.9999ZM15.9999 2.66658C19.0752 2.66413 22.0558 3.73025 24.4319 5.68258L19.6706 10.4439C18.5834 9.71973 17.3062 9.33332 15.9999 9.33332C14.6936 9.33332 13.4165 9.71973 12.3292 10.4439L7.56792 5.68258C9.94401 3.73025 12.9246 2.66413 15.9999 2.66658ZM2.66658 15.9999C2.66413 12.9246 3.73025 9.94401 5.68258 7.56792L10.4439 12.3292C9.71973 13.4165 9.33332 14.6936 9.33332 15.9999C9.33332 17.3062 9.71973 18.5834 10.4439 19.6706L5.68258 24.4319C3.73025 22.0558 2.66413 19.0752 2.66658 15.9999ZM15.9999 29.3333C12.9246 29.3357 9.94401 28.2696 7.56792 26.3173L12.3292 21.5559C13.4165 22.2801 14.6936 22.6665 15.9999 22.6665C17.3062 22.6665 18.5834 22.2801 19.6706 21.5559L24.4319 26.3173C22.0558 28.2696 19.0752 29.3357 15.9999 29.3333Z" fill="white"/>
</g>
<defs>
<clipPath id="clip0_445_1204">
<rect width="32" height="32" fill="white"/>
</clipPath>
</defs>
</svg>
