<svg width="32" height="32" viewBox="0 0 32 32" fill="none" xmlns="http://www.w3.org/2000/svg">
<g clip-path="url(#clip0_445_1137)">
<path d="M26.0467 4.16269L23.8387 1.95203C23.2209 1.33111 22.4861 0.838878 21.6768 0.503819C20.8676 0.168759 19.9999 -0.00247466 19.124 2.70206e-05H10.6667C8.89921 0.00214416 7.20474 0.705203 5.95496 1.95499C4.70518 3.20477 4.00212 4.89923 4 6.66669V25.3334C4.00212 27.1008 4.70518 28.7953 5.95496 30.0451C7.20474 31.2949 8.89921 31.9979 10.6667 32H21.3333C23.1008 31.9979 24.7953 31.2949 26.045 30.0451C27.2948 28.7953 27.9979 27.1008 28 25.3334V8.87603C28.0022 8.00027 27.8306 7.13278 27.4953 6.32375C27.1601 5.51472 26.6677 4.7802 26.0467 4.16269ZM24.1613 6.04803C24.3505 6.23645 24.5198 6.44376 24.6667 6.66669H21.3333V3.33336C21.5559 3.48179 21.7636 3.65147 21.9533 3.84003L24.1613 6.04803ZM25.3333 25.3334C25.3333 26.3942 24.9119 27.4116 24.1618 28.1618C23.4116 28.9119 22.3942 29.3334 21.3333 29.3334H10.6667C9.6058 29.3334 8.58839 28.9119 7.83824 28.1618C7.08809 27.4116 6.66667 26.3942 6.66667 25.3334V6.66669C6.66667 5.60583 7.08809 4.58841 7.83824 3.83827C8.58839 3.08812 9.6058 2.66669 10.6667 2.66669H18.6667V6.66669C18.6667 7.37394 18.9476 8.05222 19.4477 8.55231C19.9478 9.05241 20.6261 9.33336 21.3333 9.33336H25.3333V25.3334ZM21.3333 12C21.687 12 22.0261 12.1405 22.2761 12.3906C22.5262 12.6406 22.6667 12.9797 22.6667 13.3334C22.6667 13.687 22.5262 14.0261 22.2761 14.2762C22.0261 14.5262 21.687 14.6667 21.3333 14.6667H10.6667C10.313 14.6667 9.97391 14.5262 9.72386 14.2762C9.47381 14.0261 9.33333 13.687 9.33333 13.3334C9.33333 12.9797 9.47381 12.6406 9.72386 12.3906C9.97391 12.1405 10.313 12 10.6667 12H21.3333ZM22.6667 18.6667C22.6667 19.0203 22.5262 19.3595 22.2761 19.6095C22.0261 19.8596 21.687 20 21.3333 20H10.6667C10.313 20 9.97391 19.8596 9.72386 19.6095C9.47381 19.3595 9.33333 19.0203 9.33333 18.6667C9.33333 18.3131 9.47381 17.9739 9.72386 17.7239C9.97391 17.4738 10.313 17.3334 10.6667 17.3334H21.3333C21.687 17.3334 22.0261 17.4738 22.2761 17.7239C22.5262 17.9739 22.6667 18.3131 22.6667 18.6667ZM22.4107 23.2174C22.6179 23.5025 22.7038 23.8581 22.6496 24.2064C22.5954 24.5547 22.4055 24.8674 22.1213 25.076C20.7704 26.0386 19.1704 26.591 17.5133 26.6667C16.5452 26.662 15.6064 26.3335 14.8467 25.7334C14.4093 25.4334 14.2427 25.3334 13.9133 25.3334C13.0219 25.4713 12.1808 25.8358 11.4707 26.392C11.189 26.5928 10.8403 26.6763 10.4983 26.6248C10.1562 26.5733 9.84753 26.3909 9.63745 26.1161C9.42736 25.8413 9.3323 25.4956 9.37233 25.152C9.41236 24.8084 9.58436 24.4938 9.852 24.2747C11.0269 23.3626 12.4377 22.8048 13.9187 22.6667C14.8068 22.6809 15.6655 22.9879 16.3613 23.54C16.6785 23.8253 17.0869 23.9884 17.5133 24C18.6036 23.9184 19.652 23.5459 20.5493 22.9214C20.8355 22.714 21.1922 22.6286 21.5413 22.6841C21.8903 22.7396 22.203 22.9314 22.4107 23.2174Z" fill="white"/>
</g>
<defs>
<clipPath id="clip0_445_1137">
<rect width="32" height="32" fill="white"/>
</clipPath>
</defs>
</svg>
