<svg width="32" height="32" viewBox="0 0 32 32" fill="none" xmlns="http://www.w3.org/2000/svg">
<g clip-path="url(#clip0_445_1238)">
<path d="M22.368 15.0827C22.8747 15.616 22.852 16.46 22.3187 16.968L17.5827 21.4653C16.8214 22.216 15.8107 22.5933 14.7987 22.5933C13.7867 22.5933 12.7707 22.2173 11.9974 21.4613L9.84803 19.508C9.3027 19.012 9.26403 18.168 9.7587 17.624C10.2534 17.08 11.0974 17.04 11.6427 17.5347L13.8267 19.52C14.3787 20.0573 15.216 20.0547 15.7294 19.548L20.4827 15.032C21.0174 14.5253 21.86 14.5493 22.368 15.0813V15.0827ZM30.6667 6.66667C30.6667 7.404 30.0707 8 29.3334 8H28.152L26.4494 25.9627C26.124 29.404 23.2707 32 19.8134 32H12.176C8.72403 32 5.8707 29.4093 5.54003 25.972L3.81203 8H2.66536C1.92936 8 1.33203 7.404 1.33203 6.66667C1.33203 5.92933 1.92936 5.33333 2.66536 5.33333H8.13336C8.75336 2.29467 11.4467 0 14.6654 0H17.332C20.5507 0 23.2454 2.29467 23.864 5.33333H29.332C30.0694 5.33333 30.6667 5.92933 30.6667 6.66667ZM10.896 5.33333H21.104C20.5534 3.78133 19.072 2.66667 17.3334 2.66667H14.6667C12.928 2.66667 11.4467 3.78133 10.896 5.33333ZM25.4747 8H6.49336L8.19736 25.716C8.3947 27.7787 10.1067 29.3333 12.1787 29.3333H19.816C21.8907 29.3333 23.6014 27.776 23.7974 25.7107L25.4747 8Z" fill="white"/>
</g>
<defs>
<clipPath id="clip0_445_1238">
<rect width="32" height="32" fill="white"/>
</clipPath>
</defs>
</svg>
