<svg width="32" height="32" viewBox="0 0 32 32" fill="none" xmlns="http://www.w3.org/2000/svg">
<g clip-path="url(#clip0_445_1175)">
<path d="M31.0173 18.5133C32.3253 19.8227 32.3253 21.9547 31.0173 23.2627L23.8573 30.4227C22.808 31.472 21.4293 31.996 20.0507 31.996C18.672 31.996 17.2947 31.472 16.2453 30.4227C15.228 29.4067 14.668 28.0547 14.668 26.616C14.668 25.1773 15.228 23.8267 16.2453 22.8093L21.8627 17.1933C22.384 16.672 23.2267 16.672 23.748 17.1933C24.2693 17.7147 24.2693 18.5573 23.748 19.0787L18.1307 24.6947C17.6173 25.208 17.3347 25.8907 17.3347 26.616C17.3347 27.3413 17.6173 28.024 18.1307 28.5373C19.192 29.596 20.9147 29.5947 21.9733 28.5373L29.1333 21.3773C29.4027 21.108 29.4027 20.668 29.1333 20.3987C28.8733 20.1387 28.4173 20.1373 28.1547 20.3987L22.2787 26.2747C21.7573 26.796 20.9147 26.796 20.3933 26.2747C19.872 25.7533 19.872 24.9107 20.3933 24.3893L26.2693 18.5133C27.5373 17.2467 29.7467 17.244 31.0173 18.5133ZM32 6.66667V13.3333C32 14.0693 31.404 14.6667 30.6667 14.6667C29.9293 14.6667 29.3333 14.0693 29.3333 13.3333V6.66667C29.3333 6.292 29.2653 5.93733 29.168 5.59333L20.7133 14.0493C19.4533 15.308 17.7787 16.0013 15.9987 16.0013C14.2187 16.0013 12.544 15.308 11.284 14.0493L2.832 5.59333C2.73467 5.93733 2.66667 6.29333 2.66667 6.66667V18.6667C2.66667 20.872 4.46133 22.6667 6.66667 22.6667H10.6667C11.404 22.6667 12 23.264 12 24C12 24.736 11.404 25.3333 10.6667 25.3333H6.66667C2.99067 25.3333 0 22.3427 0 18.6667V6.66667C0 2.99067 2.99067 0 6.66667 0H25.3333C29.0093 0 32 2.99067 32 6.66667ZM27.6067 3.38267C26.96 2.93333 26.1787 2.66667 25.3333 2.66667H6.66667C5.82133 2.66667 5.04 2.93333 4.39333 3.38267L13.172 12.1627C13.928 12.9173 14.964 13.2947 16.0013 13.296C17.0373 13.296 18.0747 12.9187 18.8307 12.1627L27.6093 3.38267H27.6067Z" fill="white"/>
</g>
<defs>
<clipPath id="clip0_445_1175">
<rect width="32" height="32" fill="white"/>
</clipPath>
</defs>
</svg>
