<svg width="32" height="32" viewBox="0 0 32 32" fill="none" xmlns="http://www.w3.org/2000/svg">
<g clip-path="url(#clip0_445_1165)">
<path d="M19.4666 28.4C19.0666 28.7013 18.6412 29.0187 18.2799 29.3333H21.3332C21.6869 29.3333 22.026 29.4738 22.276 29.7238C22.5261 29.9739 22.6666 30.313 22.6666 30.6667C22.6666 31.0203 22.5261 31.3594 22.276 31.6095C22.026 31.8595 21.6869 32 21.3332 32H15.9999C15.6463 32 15.3071 31.8595 15.0571 31.6095C14.807 31.3594 14.6666 31.0203 14.6666 30.6667C14.6666 28.6667 16.3666 27.392 17.8666 26.2667C18.8666 25.5173 19.9999 24.6667 19.9999 24C19.9999 23.6464 19.8594 23.3072 19.6094 23.0572C19.3593 22.8071 19.0202 22.6667 18.6666 22.6667C18.3129 22.6667 17.9738 22.8071 17.7238 23.0572C17.4737 23.3072 17.3332 23.6464 17.3332 24C17.3332 24.3536 17.1928 24.6927 16.9427 24.9428C16.6927 25.1928 16.3535 25.3333 15.9999 25.3333C15.6463 25.3333 15.3071 25.1928 15.0571 24.9428C14.807 24.6927 14.6666 24.3536 14.6666 24C14.6666 22.9391 15.088 21.9217 15.8381 21.1716C16.5883 20.4214 17.6057 20 18.6666 20C19.7274 20 20.7449 20.4214 21.495 21.1716C22.2451 21.9217 22.6666 22.9391 22.6666 24C22.6666 26 20.9666 27.2747 19.4666 28.4ZM30.6666 20C30.3129 20 29.9738 20.1405 29.7238 20.3905C29.4737 20.6406 29.3332 20.9797 29.3332 21.3333V25.3333H27.9999C27.6463 25.3333 27.3071 25.1928 27.0571 24.9428C26.807 24.6927 26.6666 24.3536 26.6666 24V21.3333C26.6666 20.9797 26.5261 20.6406 26.276 20.3905C26.026 20.1405 25.6869 20 25.3332 20C24.9796 20 24.6405 20.1405 24.3904 20.3905C24.1404 20.6406 23.9999 20.9797 23.9999 21.3333V24C23.9999 25.0609 24.4213 26.0783 25.1715 26.8284C25.9216 27.5786 26.939 28 27.9999 28H29.3332V30.6667C29.3332 31.0203 29.4737 31.3594 29.7238 31.6095C29.9738 31.8595 30.3129 32 30.6666 32C31.0202 32 31.3593 31.8595 31.6094 31.6095C31.8594 31.3594 31.9999 31.0203 31.9999 30.6667V21.3333C31.9999 20.9797 31.8594 20.6406 31.6094 20.3905C31.3593 20.1405 31.0202 20 30.6666 20ZM17.3332 16V9.33332C17.3332 8.9797 17.1928 8.64056 16.9427 8.39051C16.6927 8.14046 16.3535 7.99998 15.9999 7.99998C15.6463 7.99998 15.3071 8.14046 15.0571 8.39051C14.807 8.64056 14.6666 8.9797 14.6666 9.33332V14.6667H10.6666C10.3129 14.6667 9.97381 14.8071 9.72376 15.0572C9.47371 15.3072 9.33323 15.6464 9.33323 16C9.33323 16.3536 9.47371 16.6927 9.72376 16.9428C9.97381 17.1928 10.3129 17.3333 10.6666 17.3333H15.9999C16.3535 17.3333 16.6927 17.1928 16.9427 16.9428C17.1928 16.6927 17.3332 16.3536 17.3332 16ZM30.6666 2.66665C30.3129 2.66665 29.9738 2.80713 29.7238 3.05717C29.4737 3.30722 29.3332 3.64636 29.3332 3.99998V7.16532C27.944 5.06875 26.0801 3.32921 23.8927 2.08785C21.7053 0.846496 19.2561 0.138283 16.7438 0.0206773C14.2315 -0.0969282 11.7268 0.379387 9.43301 1.41098C7.13923 2.44256 5.12095 4.00037 3.54192 5.95799C1.9629 7.91561 0.867612 10.2179 0.34493 12.6781C-0.177751 15.1382 -0.113102 17.687 0.53363 20.1175C1.18036 22.548 2.39096 24.7918 4.0672 26.6668C5.74344 28.5419 7.8381 29.9953 10.1812 30.9093C10.3361 30.969 10.5006 30.9998 10.6666 31C10.9777 31.0005 11.2792 30.8921 11.5189 30.6937C11.7586 30.4953 11.9213 30.2193 11.9789 29.9135C12.0365 29.6078 11.9854 29.2915 11.8343 29.0194C11.6833 28.7474 11.4419 28.5368 11.1519 28.424C9.1626 27.6548 7.38686 26.4195 5.97374 24.822C4.56063 23.2245 3.55138 21.3112 3.03071 19.2429C2.51004 17.1746 2.49316 15.0116 2.98147 12.9354C3.46977 10.8592 4.44903 8.93042 5.83703 7.31101C7.22503 5.69161 8.98126 4.42881 10.9583 3.62862C12.9354 2.82842 15.0755 2.5142 17.1991 2.71231C19.3228 2.91042 21.3679 3.6151 23.1628 4.76717C24.9577 5.91925 26.4501 7.48512 27.5146 9.33332H23.9999C23.6463 9.33332 23.3071 9.47379 23.0571 9.72384C22.807 9.97389 22.6666 10.313 22.6666 10.6667C22.6666 11.0203 22.807 11.3594 23.0571 11.6095C23.3071 11.8595 23.6463 12 23.9999 12H27.9999C29.0608 12 30.0782 11.5786 30.8283 10.8284C31.5785 10.0783 31.9999 9.06085 31.9999 7.99998V3.99998C31.9999 3.64636 31.8594 3.30722 31.6094 3.05717C31.3593 2.80713 31.0202 2.66665 30.6666 2.66665Z" fill="white"/>
</g>
<defs>
<clipPath id="clip0_445_1165">
<rect width="32" height="32" fill="white"/>
</clipPath>
</defs>
</svg>
