<svg width="32" height="32" viewBox="0 0 32 32" fill="none" xmlns="http://www.w3.org/2000/svg">
<g clip-path="url(#clip0_445_1184)">
<path d="M22.6665 0H9.33317C5.65717 0 2.6665 2.99067 2.6665 6.66667V26.6667C2.6665 29.608 5.0585 32 7.99984 32H22.6665C26.3425 32 29.3332 29.0093 29.3332 25.3333V6.66667C29.3332 2.99067 26.3425 0 22.6665 0ZM9.33317 2.66667H22.6665C24.8718 2.66667 26.6665 4.46133 26.6665 6.66667V21.3333H7.99984C7.02917 21.3333 6.1185 21.5947 5.33317 22.0493V6.66667C5.33317 4.46133 7.12784 2.66667 9.33317 2.66667ZM22.6665 29.3333H7.99984C6.52917 29.3333 5.33317 28.1373 5.33317 26.6667C5.33317 25.196 6.52917 24 7.99984 24H26.6665V25.3333C26.6665 27.5387 24.8718 29.3333 22.6665 29.3333Z" fill="white"/>
<path d="M15.4678 6.69208C12.6972 6.96142 10.6665 9.45208 10.6665 12.2361V14.6654C10.6665 15.4014 11.2638 15.9987 11.9998 15.9987H13.3332V17.3321C13.3332 18.0681 13.9305 18.6654 14.6665 18.6654H17.3332C18.0692 18.6654 18.6665 18.0681 18.6665 17.3321V15.9987H19.9998C20.7358 15.9987 21.3332 15.4014 21.3332 14.6654V11.9987C21.3332 8.88275 18.6478 6.38408 15.4678 6.69208ZM13.6638 13.6667C12.7438 13.6667 11.9972 12.9201 11.9972 12.0001C11.9972 11.0801 12.7438 10.3334 13.6638 10.3334C14.5838 10.3334 15.3305 11.0801 15.3305 12.0001C15.3305 12.9201 14.5838 13.6667 13.6638 13.6667ZM18.3198 13.6667C17.3998 13.6667 16.6532 12.9201 16.6532 12.0001C16.6532 11.0801 17.3998 10.3334 18.3198 10.3334C19.2398 10.3334 19.9865 11.0801 19.9865 12.0001C19.9865 12.9201 19.2398 13.6667 18.3198 13.6667Z" fill="white"/>
</g>
<defs>
<clipPath id="clip0_445_1184">
<rect width="32" height="32" fill="white"/>
</clipPath>
</defs>
</svg>
