<svg width="32" height="32" viewBox="0 0 32 32" fill="none" xmlns="http://www.w3.org/2000/svg">
<g clip-path="url(#clip0_445_1096)">
<path d="M31.5533 30.116L30.8573 30.916C30.1227 31.652 29.1547 32 28.1907 32C23.2387 32 16 25.1427 16 19.8093C16 18.8453 16.348 17.8773 17.084 17.1427L17.884 16.4467C18.4787 15.852 19.444 15.852 20.0387 16.4467L21.6493 18.1827C22.244 18.7773 22.244 19.7427 21.6493 20.3373L20.2827 21.7187C21.484 24.7107 23.5213 26.6653 26.2827 27.7187L27.664 26.352C28.2587 25.7573 29.224 25.7573 29.8187 26.352L31.5547 27.9627C32.1493 28.5573 32.1493 29.5227 31.5547 30.1173L31.5533 30.116ZM18.6667 30.6667C18.6667 31.4027 18.0707 32 17.3333 32H5.33333C2.392 32 0 29.608 0 26.6667V6.66667C0 2.99067 2.99067 0 6.66667 0H20C23.676 0 26.6667 2.99067 26.6667 6.66667V17.3333C26.6667 18.0693 26.0707 18.6667 25.3333 18.6667C24.596 18.6667 24 18.0693 24 17.3333V6.66667C24 4.46133 22.2053 2.66667 20 2.66667H8V21.3333H12C12.7373 21.3333 13.3333 21.9307 13.3333 22.6667C13.3333 23.4027 12.7373 24 12 24H5.33333C3.86267 24 2.66667 25.196 2.66667 26.6667C2.66667 28.1373 3.86267 29.3333 5.33333 29.3333H17.3333C18.0707 29.3333 18.6667 29.9307 18.6667 30.6667ZM2.66667 6.66667V22.0747C3.45467 21.616 4.35733 21.3333 5.33333 21.3333V2.912C3.78533 3.464 2.66667 4.93067 2.66667 6.66667Z" fill="white"/>
</g>
<defs>
<clipPath id="clip0_445_1096">
<rect width="32" height="32" fill="white"/>
</clipPath>
</defs>
</svg>
