<svg width="32" height="32" viewBox="0 0 32 32" fill="none" xmlns="http://www.w3.org/2000/svg">
<g clip-path="url(#clip0_445_1105)">
<path d="M18.46 23.0226L14.1107 27.3719C12.8479 28.601 11.152 29.2834 9.38996 29.2716C7.62788 29.2598 5.94129 28.5547 4.69511 27.3088C3.44892 26.063 2.74335 24.3766 2.73105 22.6145C2.71874 20.8525 3.4007 19.1564 4.62936 17.8933L8.97869 13.5399C9.22871 13.2898 9.36909 12.9505 9.36896 12.5968C9.36884 12.2431 9.22822 11.904 8.97803 11.6539C8.72784 11.4039 8.38858 11.2635 8.03489 11.2637C7.6812 11.2638 7.34204 11.4044 7.09203 11.6546L2.74403 16.0079C0.987057 17.7658 0.00035172 20.1496 0.000976859 22.635C0.001602 25.1203 0.989506 27.5036 2.74736 29.2606C4.50522 31.0176 6.88903 32.0043 9.37438 32.0037C11.8597 32.003 14.2431 31.0151 16 29.2573L20.3494 24.9079C20.5922 24.6565 20.7266 24.3197 20.7236 23.9701C20.7206 23.6205 20.5803 23.2861 20.3331 23.0388C20.0859 22.7916 19.7515 22.6514 19.4019 22.6484C19.0523 22.6453 18.7155 22.7797 18.464 23.0226H18.46Z" fill="white"/>
<path d="M29.2585 2.74803C28.3909 1.87445 27.3585 1.18174 26.2212 0.710028C25.0839 0.238317 23.8644 -0.00300861 22.6331 3.28543e-05C21.4026 -0.00323612 20.1835 0.23747 19.0466 0.708235C17.9096 1.179 16.8772 1.87048 16.0091 2.7427L11.6531 7.09337C11.403 7.34338 11.2623 7.68253 11.2622 8.03623C11.2621 8.38992 11.4025 8.72918 11.6525 8.97937C11.9025 9.22955 12.2416 9.37018 12.5953 9.3703C12.949 9.37043 13.2883 9.23004 13.5385 8.98003L17.8918 4.6307C18.5125 4.00623 19.251 3.5111 20.0644 3.17398C20.8778 2.83685 21.75 2.66443 22.6305 2.6667C23.9562 2.66714 25.252 3.06061 26.3541 3.79737C27.4562 4.53412 28.3151 5.58109 28.8223 6.80593C29.3294 8.03076 29.4621 9.37846 29.2034 10.6787C28.9448 11.9789 28.3065 13.1732 27.3691 14.1107L23.0198 18.46C22.7696 18.7102 22.6291 19.0495 22.6291 19.4034C22.6291 19.7572 22.7696 20.0965 23.0198 20.3467C23.27 20.5969 23.6093 20.7374 23.9631 20.7374C24.317 20.7374 24.6563 20.5969 24.9065 20.3467L29.2558 16C31.0105 14.2415 31.9962 11.8588 31.9967 9.37458C31.9972 6.89033 31.0125 4.50728 29.2585 2.74803Z" fill="white"/>
<path d="M19.0574 11.0574L11.0574 19.0574C10.9301 19.1804 10.8285 19.3275 10.7586 19.4902C10.6888 19.6529 10.652 19.8278 10.6504 20.0049C10.6489 20.1819 10.6826 20.3575 10.7497 20.5213C10.8167 20.6852 10.9157 20.8341 11.0409 20.9592C11.1661 21.0844 11.315 21.1834 11.4788 21.2505C11.6427 21.3175 11.8183 21.3513 11.9953 21.3497C12.1723 21.3482 12.3473 21.3114 12.51 21.2415C12.6727 21.1716 12.8198 21.0701 12.9428 20.9427L20.9428 12.9427C21.1857 12.6913 21.32 12.3544 21.317 12.0049C21.314 11.6553 21.1737 11.3208 20.9265 11.0736C20.6793 10.8264 20.3449 10.6862 19.9953 10.6832C19.6457 10.6801 19.3089 10.8145 19.0574 11.0574Z" fill="white"/>
</g>
<defs>
<clipPath id="clip0_445_1105">
<rect width="32" height="32" fill="white"/>
</clipPath>
</defs>
</svg>
