<svg width="32" height="32" viewBox="0 0 32 32" fill="none" xmlns="http://www.w3.org/2000/svg">
<g clip-path="url(#clip0_445_1247)">
<path d="M25.3333 2.66667H24V1.33333C24 0.597333 23.4027 0 22.6667 0C21.9307 0 21.3333 0.597333 21.3333 1.33333V2.66667H10.6667V1.33333C10.6667 0.597333 10.0693 0 9.33333 0C8.59733 0 8 0.597333 8 1.33333V2.66667H6.66667C2.99067 2.66667 0 5.65733 0 9.33333V25.3333C0 29.0093 2.99067 32 6.66667 32H25.3333C29.0093 32 32 29.0093 32 25.3333V9.33333C32 5.65733 29.0093 2.66667 25.3333 2.66667ZM6.66667 5.33333H25.3333C27.5387 5.33333 29.3333 7.128 29.3333 9.33333V10.6667H2.66667V9.33333C2.66667 7.128 4.46133 5.33333 6.66667 5.33333ZM25.3333 29.3333H6.66667C4.46133 29.3333 2.66667 27.5387 2.66667 25.3333V13.3333H29.3333V25.3333C29.3333 27.5387 27.5387 29.3333 25.3333 29.3333Z" fill="white"/>
<path d="M14.1738 22.1152L12.8262 21.793L13.3125 17.4688H18.1055V18.834H14.7012L14.4902 20.7266C14.6035 20.6602 14.7754 20.5898 15.0059 20.5156C15.2363 20.4375 15.4941 20.3984 15.7793 20.3984C16.1934 20.3984 16.5605 20.4629 16.8809 20.5918C17.2012 20.7207 17.4727 20.9082 17.6953 21.1543C17.9219 21.4004 18.0938 21.7012 18.2109 22.0566C18.3281 22.4121 18.3867 22.8145 18.3867 23.2637C18.3867 23.6426 18.3281 24.0039 18.2109 24.3477C18.0938 24.6875 17.916 24.9922 17.6777 25.2617C17.4395 25.5273 17.1406 25.7363 16.7812 25.8887C16.4219 26.041 15.9961 26.1172 15.5039 26.1172C15.1367 26.1172 14.7812 26.0625 14.4375 25.9531C14.0977 25.8438 13.791 25.6816 13.5176 25.4668C13.248 25.252 13.0312 24.9922 12.8672 24.6875C12.707 24.3789 12.623 24.0273 12.6152 23.6328H14.291C14.3145 23.875 14.377 24.084 14.4785 24.2598C14.584 24.4316 14.7227 24.5645 14.8945 24.6582C15.0664 24.752 15.2676 24.7988 15.498 24.7988C15.7129 24.7988 15.8965 24.7578 16.0488 24.6758C16.2012 24.5938 16.3242 24.4805 16.418 24.3359C16.5117 24.1875 16.5801 24.0156 16.623 23.8203C16.6699 23.6211 16.6934 23.4062 16.6934 23.1758C16.6934 22.9453 16.666 22.7363 16.6113 22.5488C16.5566 22.3613 16.4727 22.1992 16.3594 22.0625C16.2461 21.9258 16.1016 21.8203 15.9258 21.7461C15.7539 21.6719 15.5527 21.6348 15.3223 21.6348C15.0098 21.6348 14.7676 21.6836 14.5957 21.7812C14.4277 21.8789 14.2871 21.9902 14.1738 22.1152Z" fill="white"/>
</g>
<defs>
<clipPath id="clip0_445_1247">
<rect width="32" height="32" fill="white"/>
</clipPath>
</defs>
</svg>
