<svg width="32" height="32" viewBox="0 0 32 32" fill="none" xmlns="http://www.w3.org/2000/svg">
<path d="M29.3332 6.66667V25.3333C29.3332 29.0093 26.3425 32 22.6665 32H9.33317C5.65717 32 2.6665 29.0093 2.6665 25.3333V6.66667C2.6665 2.99067 5.65717 0 9.33317 0H10.6665C11.4025 0 11.9998 0.597333 11.9998 1.33333C11.9998 2.06933 11.4025 2.66667 10.6665 2.66667H9.33317C7.12784 2.66667 5.33317 4.46133 5.33317 6.66667V25.3333C5.33317 27.5387 7.12784 29.3333 9.33317 29.3333H22.6665C24.8718 29.3333 26.6665 27.5387 26.6665 25.3333V6.66667C26.6665 5.748 26.3625 4.88267 25.7892 4.16667C25.3292 3.592 25.4212 2.75333 25.9958 2.292C26.5692 1.83067 27.4078 1.92133 27.8705 2.49867C28.8145 3.67467 29.3332 5.15733 29.3332 6.66667ZM10.6665 25.3333H21.3332C22.0692 25.3333 22.6665 24.736 22.6665 24C22.6665 23.264 22.0692 22.6667 21.3332 22.6667H10.6665C9.9305 22.6667 9.33317 23.264 9.33317 24C9.33317 24.736 9.9305 25.3333 10.6665 25.3333ZM14.6665 14.6667C15.4025 14.6667 15.9998 14.0693 15.9998 13.3333V5.33333C15.9998 3.86267 17.1958 2.66667 18.6665 2.66667C20.1372 2.66667 21.3332 3.86267 21.3332 5.33333V15.3333C21.3332 15.7013 21.0345 16 20.6665 16C20.2985 16 19.9998 15.7013 19.9998 15.3333V6.66667C19.9998 5.93067 19.4025 5.33333 18.6665 5.33333C17.9305 5.33333 17.3332 5.93067 17.3332 6.66667V15.3333C17.3332 17.1707 18.8292 18.6667 20.6665 18.6667C22.5038 18.6667 23.9998 17.1707 23.9998 15.3333V5.33333C23.9998 2.392 21.6078 0 18.6665 0C15.7252 0 13.3332 2.392 13.3332 5.33333V13.3333C13.3332 14.0693 13.9305 14.6667 14.6665 14.6667ZM10.6665 20H13.9998C14.7358 20 15.3332 19.4027 15.3332 18.6667C15.3332 17.9307 14.7358 17.3333 13.9998 17.3333H10.6665C9.9305 17.3333 9.33317 17.9307 9.33317 18.6667C9.33317 19.4027 9.9305 20 10.6665 20Z" fill="white"/>
</svg>
